<svg width="9" height="15" viewBox="0 0 9 15" fill="none" xmlns="http://www.w3.org/2000/svg">
<path d="M8 11V11.5H8.5V11H8ZM0.646447 10.6464C0.451184 10.8417 0.451184 11.1583 0.646447 11.3536L3.82843 14.5355C4.02369 14.7308 4.34027 14.7308 4.53553 14.5355C4.7308 14.3403 4.7308 14.0237 4.53553 13.8284L1.70711 11L4.53553 8.17157C4.7308 7.97631 4.7308 7.65973 4.53553 7.46447C4.34027 7.2692 4.02369 7.2692 3.82843 7.46447L0.646447 10.6464ZM7.5 0V11H8.5V0H7.5ZM8 10.5H1V11.5H8V10.5Z" fill="#25393A"/>
</svg>
